<svg width="38" height="40" viewBox="0 0 38 40" fill="none" xmlns="http://www.w3.org/2000/svg">
<path fill-rule="evenodd" clip-rule="evenodd" d="M19 0C8.5025 0 0 9.17638 0 20.5059C0 29.5797 5.43875 37.2438 12.9912 39.9608C13.9412 40.1403 14.2975 39.5251 14.2975 38.9868C14.2975 38.4998 14.2737 36.8849 14.2737 35.1676C9.5 36.116 8.265 33.9116 7.885 32.7581C7.67125 32.1686 6.745 30.3487 5.9375 29.8617C5.2725 29.4772 4.3225 28.5288 5.91375 28.5032C7.41 28.4775 8.47875 29.9898 8.835 30.605C10.545 33.7065 13.2762 32.835 14.3687 32.2968C14.535 30.9639 15.0337 30.0667 15.58 29.5541C11.3525 29.0414 6.935 27.2728 6.935 19.4293C6.935 17.1993 7.67125 15.3538 8.8825 13.9184C8.6925 13.4057 8.0275 11.3039 9.0725 8.48431C9.0725 8.48431 10.6637 7.94603 14.2975 10.5862C15.8175 10.1248 17.4325 9.89408 19.0475 9.89408C20.6625 9.89408 22.2775 10.1248 23.7975 10.5862C27.4312 7.92039 29.0225 8.48431 29.0225 8.48431C30.0675 11.3039 29.4025 13.4057 29.2125 13.9184C30.4237 15.3538 31.16 17.1737 31.16 19.4293C31.16 27.2985 26.7188 29.0414 22.4913 29.5541C23.18 30.1949 23.7738 31.4253 23.7738 33.3477C23.7738 36.0903 23.75 38.2947 23.75 38.9868C23.75 39.5251 24.1062 40.1659 25.0562 39.9608C32.5612 37.2438 38 29.5541 38 20.5059C38 9.17638 29.4975 0 19 0Z" fill="#F60069"/>
</svg>
